<svg width="134.005859" height="28.416138" viewBox="0 0 134.006 28.4161" fill="none" xmlns="http://www.w3.org/2000/svg" xmlns:xlink="http://www.w3.org/1999/xlink">
	<desc>
			Created with Pixso.
	</desc>
	<defs/>
	<path id="Vector" d="M86.12 5.83C85.69 5.83 85.29 5.77 84.94 5.64C84.57 5.51 84.25 5.3 83.97 5.03C83.43 4.49 83.17 3.78 83.17 2.91C83.17 2.76 83.17 2.6 83.19 2.46C83.21 2.31 83.24 2.17 83.28 2.03C83.41 1.57 83.65 1.18 84.01 0.84C84.57 0.28 85.28 0 86.12 0C86.94 0 87.64 0.26 88.23 0.8C88.82 1.34 89.12 2.04 89.12 2.91C89.12 3.78 88.83 4.49 88.27 5.03C87.71 5.56 86.99 5.83 86.12 5.83ZM62.39 28.41L62.39 1.26L67.19 1.26L67.19 24.03L81.33 24.03L81.33 28.41L62.39 28.41ZM115.26 28.41L115.26 1.26L119.95 1.26L119.95 16.28L122.87 16.28L128.2 8.17L133.46 8.17L126.9 17.81L134 28.41L128.55 28.41L123.14 20.39L119.95 20.39L119.95 28.41L115.26 28.41ZM0 2.01L4.8 2.01L4.8 28.41L0 28.41L0 2.01ZM7.19 2.01L12 2.01L12 28.41L7.19 28.41L7.19 2.01ZM14.39 2.01L19.2 2.01L19.2 28.41L14.39 28.41L14.39 2.01ZM21.6 2.01L26.39 2.01L26.39 28.41L21.6 28.41L21.6 2.01ZM28.79 2.01L55.19 2.01L55.19 6.81L28.79 6.81L28.79 2.01ZM92.62 28.41L92.62 8.17L97 8.17L97.27 10.75C97.5 10.43 97.75 10.15 98.02 9.9C98.21 9.72 98.41 9.55 98.61 9.4C98.79 9.28 98.96 9.16 99.15 9.06C99.54 8.84 99.94 8.65 100.35 8.49C100.69 8.36 101.05 8.26 101.42 8.17C102.21 7.97 102.95 7.87 103.64 7.87C104.11 7.87 104.56 7.89 104.98 7.94L105.19 7.97C105.41 8 105.61 8.04 105.81 8.08C106.74 8.29 107.53 8.64 108.18 9.13C109.3 9.98 110.1 11.11 110.55 12.51C111.02 13.92 111.25 15.5 111.25 17.24L111.25 28.41L106.56 28.41L106.56 18C106.56 17.26 106.51 16.55 106.41 15.85C106.37 15.58 106.31 15.32 106.25 15.07C106.21 14.94 106.17 14.81 106.12 14.68C106.1 14.6 106.07 14.52 106.03 14.44C105.96 14.26 105.88 14.1 105.79 13.93C105.51 13.37 105.1 12.92 104.56 12.59C104.26 12.4 103.9 12.27 103.48 12.19C103.16 12.12 102.8 12.09 102.41 12.09C101.31 12.09 100.38 12.39 99.61 12.97C98.84 13.56 98.27 14.36 97.88 15.36C97.5 16.33 97.31 17.44 97.31 18.7L97.31 28.41L92.62 28.41ZM83.78 28.41L83.78 8.17L88.46 8.17L88.46 28.41L83.78 28.41ZM28.79 9.21L55.19 9.21L55.19 14.01L28.79 14.01L28.79 9.21ZM28.79 16.41L55.19 16.41L55.19 21.21L28.79 21.21L28.79 16.41ZM28.79 23.61L55.19 23.61L55.19 28.41L28.79 28.41L28.79 23.61Z" fill="#FFFFFF" fill-opacity="1.000000" fill-rule="evenodd"/>
</svg>
