<svg width="29.066650" height="26.400024" viewBox="0 0 29.0667 26.4" fill="none" xmlns="http://www.w3.org/2000/svg" xmlns:xlink="http://www.w3.org/1999/xlink">
	<desc>
			Created with Pixso.
	</desc>
	<defs/>
	<path id="Union" d="M9.19995 0C4.1189 0 0 4.11902 0 9.19995C0 14.281 4.1189 18.4 9.19995 18.4L10.7441 18.4C10.6931 18.0072 10.6667 17.6067 10.6667 17.2C10.6667 12.119 14.7856 8 19.8667 8C23.5142 8 26.6658 10.1227 28.1538 13.2C28.7388 11.9905 29.0667 10.6335 29.0667 9.19995C29.0667 4.11902 24.9478 0 19.8667 0L9.19995 0ZM19.8667 10.6666C16.2583 10.6666 13.3333 13.5918 13.3333 17.2C13.3333 20.8082 16.2583 23.7333 19.8667 23.7333C21.2373 23.7333 22.5093 23.3113 23.5598 22.5901L27.0181 26.0486C27.4868 26.5172 28.2466 26.5172 28.7151 26.0486C29.1838 25.58 29.1838 24.8201 28.7151 24.3514L25.2568 20.8931C25.978 19.8425 26.3999 18.5706 26.3999 17.2C26.3999 13.5918 23.4749 10.6666 19.8667 10.6666ZM23.3818 15.0182C23.8506 15.4868 23.8506 16.2466 23.3818 16.7152L20.0486 20.0486C19.8235 20.2736 19.5183 20.4 19.2 20.4C18.8818 20.4 18.5764 20.2736 18.3516 20.0486L16.3516 18.0486C15.8828 17.58 15.8828 16.8201 16.3516 16.3514C16.8201 15.8828 17.5798 15.8828 18.0486 16.3514L19.2 17.5029L21.6848 15.0182C22.1533 14.5496 22.9133 14.5496 23.3818 15.0182Z" clip-rule="evenodd" fill="#02E4C0" fill-opacity="1.000000" fill-rule="evenodd"/>
</svg>
